<svg width="96" height="48" viewBox="0 0 96 48" fill="none" xmlns="http://www.w3.org/2000/svg">
<path d="M15.9551 36.8763H17.6022L20.8573 43.7142H19.1333L18.6614 42.7319H14.8854L14.4132 43.7142H12.6895L15.9551 36.8763ZM15.5416 41.3739H18.0071L16.7745 38.8026L15.5416 41.3739Z" fill="#29669D"/>
<path d="M21.6199 36.9725H23.2461V40.9599C23.2461 41.9323 24.132 42.4238 25.0278 42.4238C25.9236 42.4238 26.8097 41.9323 26.8097 40.9599V36.9725H28.4359V40.9599C28.4359 42.9533 26.7311 43.9552 25.0264 43.9552C23.3217 43.9552 21.6172 42.9533 21.6172 40.9599L21.6199 36.9725Z" fill="#29669D"/>
<path d="M36.846 36.9725V38.3214H33.899V43.7148H32.2712V38.3126H29.3242V36.9736L36.846 36.9725Z" fill="#29669D"/>
<path d="M40.8721 43.9359C39.1001 43.9359 37.0293 42.7507 37.0293 40.3436C37.0293 37.9366 39.1001 36.7511 40.8721 36.7511C42.6347 36.7511 44.7055 37.9363 44.7055 40.3436C44.7055 42.751 42.6347 43.9359 40.8721 43.9359ZM40.8721 38.2919C39.8608 38.2919 38.6861 38.9663 38.6861 40.3436C38.6861 41.7209 39.8608 42.3852 40.8721 42.3852C41.8737 42.3852 43.0495 41.7207 43.0495 40.3436C43.0495 38.9666 41.8737 38.2919 40.8721 38.2919Z" fill="#29669D"/>
<path d="M45.9785 36.9725H49.6286C49.9214 36.9592 50.2138 37.0067 50.4873 37.1121C50.7608 37.2175 51.0095 37.3784 51.2176 37.5848C51.4258 37.7911 51.5889 38.0384 51.6967 38.311C51.8045 38.5835 51.8546 38.8755 51.8438 39.1684C51.8546 39.4613 51.8045 39.7532 51.6967 40.0258C51.5889 40.2984 51.4258 40.5456 51.2176 40.752C51.0095 40.9583 50.7608 41.1192 50.4873 41.2246C50.2138 41.33 49.9214 41.3776 49.6286 41.3643H47.6061V43.7142H45.9799L45.9785 36.9725ZM47.6047 40.0063H49.4539C49.5634 40.0092 49.6723 39.9892 49.7737 39.9477C49.875 39.9063 49.9667 39.8442 50.0428 39.7654C50.1188 39.6866 50.1777 39.5928 50.2156 39.49C50.2535 39.3872 50.2696 39.2777 50.2628 39.1684C50.2688 39.0592 50.2521 38.95 50.2139 38.8476C50.1758 38.7452 50.1169 38.6517 50.041 38.5731C49.965 38.4945 49.8737 38.4323 49.7727 38.3906C49.6717 38.3488 49.5632 38.3284 49.4539 38.3305H47.6047V40.0063Z" fill="#29669D"/>
<path d="M55.0042 36.8763H56.6513L59.9064 43.7142H58.1824L57.7103 42.7319H53.9342L53.4623 43.7142H51.7383L55.0042 36.8763ZM54.5907 41.3739H57.0562L55.8236 38.8026L54.5907 41.3739Z" fill="#29669D"/>
<path d="M60.9648 36.9725H65.0292C66.5123 36.9725 67.2444 38.0223 67.2444 39.0818C67.2533 39.5105 67.1269 39.9311 66.8831 40.2839C66.6393 40.6366 66.2906 40.9036 65.8864 41.0468L67.9665 43.7143H65.925L64.1431 41.1815H62.5924V43.7143H60.9662L60.9648 36.9725ZM62.591 39.8329H64.6329C65.2494 39.8329 65.5576 39.4575 65.5576 39.0818C65.5576 38.7062 65.2494 38.3305 64.6329 38.3305H62.591V39.8329Z" fill="#29669D"/>
<path d="M75.4515 36.9725V38.3214H72.5045V43.7148H70.8769V38.3126H67.9297V36.9736L75.4515 36.9725Z" fill="#29669D"/>
<path d="M82.2979 39.0915C81.6816 38.5521 80.5163 38.215 79.6109 38.215C78.8981 38.215 78.359 38.417 78.359 38.8795C78.359 40.0545 83.1072 39.1684 83.1072 41.8563C83.1072 43.3397 81.5661 43.9367 79.8903 43.9367C78.5227 43.9367 77.0586 43.5417 76.2402 42.9061L77.0396 41.5578C77.6751 42.1454 79.0329 42.5112 80.0541 42.5112C80.7666 42.5112 81.3252 42.3182 81.3252 41.8949C81.3252 40.6716 76.5966 41.5192 76.5966 38.8514C76.5966 37.3683 77.9833 36.7903 79.5436 36.7903C80.8341 36.7903 82.24 37.1761 83.0876 37.7825L82.2979 39.0915Z" fill="#29669D"/>
<path d="M96 30.5526H0V32.6906H96V30.5526Z" fill="#9F1D20"/>
<path d="M12.8501 12.707H22.4306C22.8493 12.7231 23.2623 12.6055 23.6097 12.3713C23.9123 12.1576 24.1535 11.8682 24.309 11.532C24.4654 11.1899 24.5447 10.8175 24.5413 10.4413C24.5447 10.0644 24.4629 9.69158 24.3021 9.35069C24.1423 9.01495 23.8987 8.72601 23.5948 8.51169C23.2525 8.27934 22.8451 8.16204 22.4317 8.1768H21.9664L21.101 3.90075H22.5031C23.1997 3.89394 23.8939 3.9843 24.5656 4.16921C25.1608 4.33574 25.7297 4.58465 26.256 4.90871C26.7488 5.21412 27.1945 5.5897 27.579 6.02362C27.9527 6.44538 28.2696 6.91414 28.5219 7.41801C28.7732 7.9208 28.9637 8.45171 29.0894 8.99954C29.2171 9.54986 29.2818 10.1129 29.2824 10.6778C29.2831 11.4759 29.1561 12.269 28.9061 13.027C28.6582 13.7824 28.2706 14.4844 27.7634 15.0966C28.2624 15.7241 28.6456 16.4353 28.8951 17.1972C29.146 17.9608 29.2762 18.7589 29.281 19.5626C29.2808 20.1231 29.2191 20.6818 29.0969 21.2288C28.9767 21.7732 28.7902 22.3008 28.5415 22.7998C28.2916 23.2986 27.9788 23.7632 27.6107 24.1824C27.2303 24.6137 26.787 24.9854 26.296 25.2849C25.7651 25.6052 25.1922 25.85 24.5937 26.0122C23.9122 26.194 23.2092 26.2827 22.5039 26.2757H7.54297V21.9994H22.4314C22.7089 22.0053 22.9822 21.9306 23.2181 21.7841C23.4457 21.6392 23.6382 21.4454 23.7817 21.2169C23.9361 20.9691 24.0492 20.6978 24.1166 20.4137C24.1907 20.1118 24.2277 19.8021 24.2268 19.4912C24.2277 19.1804 24.1907 18.8706 24.1166 18.5687C24.0492 18.2847 23.9361 18.0135 23.7817 17.7658C23.638 17.5373 23.4455 17.3435 23.2181 17.1983C22.982 17.0523 22.7089 16.9776 22.4314 16.983H12.8499" fill="#29669D"/>
<path d="M38.1313 10.9091V19.266C38.1314 19.6191 38.2108 19.9676 38.3637 20.2858C38.5148 20.6098 38.7215 20.9048 38.9745 21.1574C39.2272 21.4102 39.522 21.6172 39.8457 21.769C40.1641 21.9214 40.5126 22.0006 40.8655 22.0005H69.5741V26.2766H40.8647C40.3691 26.2772 39.8749 26.2235 39.3909 26.1167C38.9191 26.0115 38.4588 25.8602 38.0167 25.6649C37.5785 25.4716 37.1594 25.2375 36.765 24.9657C36.3761 24.6983 36.0099 24.3991 35.6703 24.0713C34.9807 23.4059 34.4282 22.6119 34.0441 21.734C33.6539 20.8327 33.4568 19.8597 33.4653 18.8777V11.3007C33.4546 10.3283 33.6479 9.36449 34.0328 8.47144C34.4257 7.58735 34.9813 6.78496 35.6705 6.10603C36.3509 5.41617 37.155 4.86058 38.0409 4.46826C38.9328 4.08462 39.8949 3.89133 40.8658 3.90075H62.1862V8.1779H40.8658C40.4997 8.17554 40.137 8.24727 39.7994 8.38876C39.474 8.52514 39.1782 8.7234 38.9284 8.97253C38.6793 9.22187 38.4813 9.51745 38.3455 9.84268C38.2029 10.1801 38.13 10.5428 38.1313 10.9091Z" fill="#29669D"/>
<path d="M95.9994 19.4912C96.0055 20.0516 95.9467 20.6108 95.8244 21.1576C95.7034 21.7049 95.5184 22.236 95.2731 22.74C95.0274 23.2453 94.7173 23.7167 94.3506 24.1424C93.9749 24.5788 93.5356 24.956 93.0475 25.2614C92.5249 25.5874 91.9588 25.838 91.3661 26.0056C90.698 26.1929 90.0066 26.2843 89.3127 26.2774H67.1776V22.0005H89.2254C89.55 22.0075 89.8701 21.9231 90.149 21.7569C90.4081 21.5989 90.6322 21.3897 90.8077 21.1422C90.9838 20.894 91.1174 20.6183 91.2033 20.3264C91.2872 20.0558 91.3315 19.7745 91.335 19.4912C91.3328 19.2394 91.2882 18.9898 91.2033 18.7528C91.1167 18.5018 90.9824 18.2698 90.8077 18.0698C90.6235 17.8613 90.3996 17.6916 90.149 17.5707C89.8605 17.4345 89.5443 17.3674 89.2254 17.3744L73.0674 17.3504C72.2461 17.3623 71.4286 17.2354 70.6496 16.975C69.9693 16.7445 69.3339 16.3983 68.7712 15.9519C68.2433 15.529 67.7909 15.0197 67.4331 14.4456C67.0779 13.8783 66.8086 13.2616 66.6337 12.6155C66.4574 11.9669 66.3684 11.2976 66.3691 10.6255C66.3682 9.95282 66.4596 9.28324 66.6406 8.63544C66.8201 7.98971 67.0919 7.37329 67.4477 6.80528C67.8054 6.23127 68.2579 5.72205 68.7858 5.29927C69.3477 4.85405 69.9816 4.50829 70.6601 4.27697C71.4349 4.01619 72.2483 3.88898 73.0657 3.90075H95.2472V8.17845H73.152C72.8313 8.17077 72.5131 8.23618 72.2215 8.36974C71.968 8.4895 71.7442 8.66403 71.5663 8.88074C71.3929 9.09543 71.2615 9.34089 71.1791 9.60426C71.0938 9.87148 71.052 10.1507 71.0553 10.4311C71.0581 10.7121 71.1039 10.9909 71.1912 11.258C71.2765 11.5219 71.4107 11.7673 71.5867 11.9815C71.7661 12.1969 71.9897 12.3712 72.2424 12.4925C72.527 12.6251 72.8382 12.6906 73.152 12.6838L89.31 12.7078C90.0047 12.7004 90.6971 12.7891 91.3675 12.9713C91.9576 13.1341 92.5214 13.3806 93.0417 13.7031C93.5273 14.0052 93.9651 14.3782 94.3404 14.8097C94.7077 15.2322 95.0179 15.701 95.2632 16.2041C95.5093 16.7103 95.6944 17.244 95.8145 17.7939C95.9381 18.3512 96.0001 18.9204 95.9994 19.4912Z" fill="#29669D"/>
<path d="M22.1029 3.90074H7.54297V8.17679H22.9681L22.1029 3.90074Z" fill="#29669D"/>
<path d="M4.67516 16.983V26.2765H0.00385243V23.7611C0.00385243 23.7429 0 23.7278 0 23.7107V6.4662C0 6.44801 0.00385243 6.43312 0.00385243 6.41603V3.90068H4.67516V16.983Z" fill="#9F1D20"/>
</svg>
